<mxfile host="app.diagrams.net" agent="Mozilla/5.0 (Windows NT 10.0; Win64; x64) AppleWebKit/537.36 (KHTML, like Gecko) Chrome/136.0.0.0 Safari/537.36" version="27.0.9">
  <diagram id="azure-architecture" name="Azure Container Apps Architecture">
    <mxGraphModel dx="1042" dy="1696" grid="1" gridSize="10" guides="1" tooltips="1" connect="1" arrows="1" fold="1" page="1" pageScale="1" pageWidth="827" pageHeight="1169" math="0" shadow="0">
      <root>
        <mxCell id="0" />
        <mxCell id="1" parent="0" />
        <mxCell id="2" value="Azure Container Apps" style="rounded=1;whiteSpace=wrap;fillColor=#dae8fc;strokeColor=#6c8ebf;fontSize=14;fontStyle=1;" parent="1" vertex="1">
          <mxGeometry x="200" y="40" width="350" height="410" as="geometry" />
        </mxCell>
        <mxCell id="3" value="Frontend Application&#xa;(Public-facing)" style="rounded=1;whiteSpace=wrap;fillColor=#1ba1e2;strokeColor=#006EAF;fontColor=#ffffff;fontSize=12;" parent="2" vertex="1">
          <mxGeometry x="40" y="65.6" width="260" height="98.39999999999999" as="geometry" />
        </mxCell>
        <mxCell id="4" value="Private Web App" style="rounded=1;whiteSpace=wrap;fillColor=#1ba1e2;strokeColor=#006EAF;fontColor=#ffffff;fontSize=12;" parent="2" vertex="1">
          <mxGeometry x="40" y="196.79999999999998" width="260" height="98.39999999999999" as="geometry" />
        </mxCell>
        <mxCell id="Tj59wJXmX2VYmjXqF1iQ-23" value="" style="image;aspect=fixed;html=1;points=[];align=center;fontSize=12;image=img/lib/azure2/containers/App_Services.svg;" vertex="1" parent="2">
          <mxGeometry x="46" y="73" width="40" height="40" as="geometry" />
        </mxCell>
        <mxCell id="Tj59wJXmX2VYmjXqF1iQ-24" value="" style="image;aspect=fixed;html=1;points=[];align=center;fontSize=12;image=img/lib/azure2/containers/App_Services.svg;" vertex="1" parent="2">
          <mxGeometry x="50" y="197" width="40" height="40" as="geometry" />
        </mxCell>
        <mxCell id="5" value="&#xa;SQL Server Database" style="shape=cylinder;whiteSpace=wrap;fillColor=#d5e8d4;strokeColor=#82b366;fontSize=12;gradientColor=#97d077;" parent="1" vertex="1">
          <mxGeometry x="240" y="360" width="260" height="80" as="geometry" />
        </mxCell>
        <mxCell id="6" value="&#xa;Azure Key Vault" style="shape=hexagon;whiteSpace=wrap;fillColor=#d0cee2;strokeColor=#56517e;fontSize=12;" parent="1" vertex="1">
          <mxGeometry x="750" y="310" width="130" height="80" as="geometry" />
        </mxCell>
        <mxCell id="7" value="Azure Application Insights" style="ellipse;whiteSpace=wrap;fillColor=#e3c800;strokeColor=#B09500;fontColor=#000000;fontSize=12;" parent="1" vertex="1">
          <mxGeometry x="10" y="99" width="130" height="109.8" as="geometry" />
        </mxCell>
        <mxCell id="8" value="Azure Container Registry" style="rounded=1;whiteSpace=wrap;fillColor=#1ba1e2;strokeColor=#006EAF;fontColor=#ffffff;fontSize=12;" parent="1" vertex="1">
          <mxGeometry x="710" y="-10" width="250" height="60" as="geometry" />
        </mxCell>
        <mxCell id="9" value="Azure Bicep (Automation)" style="rounded=1;whiteSpace=wrap;fillColor=#1ba1e2;strokeColor=#006EAF;fontColor=#ffffff;fontSize=12;" parent="1" vertex="1">
          <mxGeometry x="50" y="490" width="910" height="40" as="geometry" />
        </mxCell>
        <mxCell id="10" style="edgeStyle=orthogonalEdgeStyle;rounded=0;orthogonalLoop=1;jettySize=auto;html=1;strokeColor=#0000FF;strokeWidth=2;" parent="1" source="3" target="4" edge="1">
          <mxGeometry relative="1" as="geometry" />
        </mxCell>
        <mxCell id="11" style="edgeStyle=orthogonalEdgeStyle;rounded=0;orthogonalLoop=1;jettySize=auto;html=1;strokeColor=#008000;strokeWidth=2;" parent="1" source="4" target="5" edge="1">
          <mxGeometry relative="1" as="geometry" />
        </mxCell>
        <mxCell id="12" style="edgeStyle=orthogonalEdgeStyle;rounded=0;orthogonalLoop=1;jettySize=auto;html=1;strokeColor=#BD7000;strokeWidth=2;dashed=1;fillColor=#f0a30a;shadow=1;" parent="1" source="3" target="6" edge="1">
          <mxGeometry relative="1" as="geometry" />
        </mxCell>
        <mxCell id="14" style="edgeStyle=orthogonalEdgeStyle;rounded=0;orthogonalLoop=1;jettySize=auto;html=1;strokeColor=#FFA500;strokeWidth=2;dashed=1;" parent="1" source="3" target="7" edge="1">
          <mxGeometry relative="1" as="geometry" />
        </mxCell>
        <mxCell id="15" style="edgeStyle=orthogonalEdgeStyle;rounded=0;orthogonalLoop=1;jettySize=auto;html=1;strokeColor=#FFA500;strokeWidth=2;dashed=1;" parent="1" source="4" target="7" edge="1">
          <mxGeometry relative="1" as="geometry" />
        </mxCell>
        <mxCell id="Tj59wJXmX2VYmjXqF1iQ-17" style="rounded=0;orthogonalLoop=1;jettySize=auto;html=1;entryX=0;entryY=0.5;entryDx=0;entryDy=0;strokeWidth=2;dashed=1;shadow=0;fillColor=#f0a30a;strokeColor=#BD7000;" edge="1" parent="1" source="4" target="6">
          <mxGeometry relative="1" as="geometry">
            <Array as="points">
              <mxPoint x="630" y="290" />
              <mxPoint x="630" y="350" />
            </Array>
          </mxGeometry>
        </mxCell>
        <mxCell id="Tj59wJXmX2VYmjXqF1iQ-18" style="rounded=0;orthogonalLoop=1;jettySize=auto;html=1;entryX=0;entryY=0.5;entryDx=0;entryDy=0;strokeWidth=2;dashed=1;" edge="1" parent="1" source="3" target="8">
          <mxGeometry relative="1" as="geometry">
            <Array as="points">
              <mxPoint x="370" y="20" />
            </Array>
          </mxGeometry>
        </mxCell>
        <mxCell id="Tj59wJXmX2VYmjXqF1iQ-19" style="edgeStyle=orthogonalEdgeStyle;rounded=0;orthogonalLoop=1;jettySize=auto;html=1;strokeWidth=2;dashed=1;" edge="1" parent="1" source="4" target="8">
          <mxGeometry relative="1" as="geometry">
            <Array as="points">
              <mxPoint x="870" y="250" />
            </Array>
          </mxGeometry>
        </mxCell>
        <mxCell id="Tj59wJXmX2VYmjXqF1iQ-20" value="" style="image;html=1;points=[];align=center;fontSize=12;image=img/lib/azure2/management_governance/Application_Insights.svg;" vertex="1" parent="1">
          <mxGeometry x="60" y="56.8" width="40" height="63" as="geometry" />
        </mxCell>
        <mxCell id="Tj59wJXmX2VYmjXqF1iQ-22" value="" style="image;aspect=fixed;html=1;points=[];align=center;fontSize=12;image=img/lib/azure2/containers/Kubernetes_Services.svg;" vertex="1" parent="1">
          <mxGeometry x="720" width="40" height="35.29" as="geometry" />
        </mxCell>
        <mxCell id="Tj59wJXmX2VYmjXqF1iQ-25" value="" style="image;aspect=fixed;html=1;points=[];align=center;fontSize=12;image=img/lib/azure2/security/Key_Vaults.svg;" vertex="1" parent="1">
          <mxGeometry x="795" y="310" width="40" height="40" as="geometry" />
        </mxCell>
        <mxCell id="Tj59wJXmX2VYmjXqF1iQ-26" value="" style="image;aspect=fixed;html=1;points=[];align=center;fontSize=12;image=img/lib/azure2/databases/SQL_Server.svg;" vertex="1" parent="1">
          <mxGeometry x="250" y="390" width="40" height="40" as="geometry" />
        </mxCell>
      </root>
    </mxGraphModel>
  </diagram>
</mxfile>
